<svg xmlns="http://www.w3.org/2000/svg" version="1.1" xmlns:xlink="http://www.w3.org/1999/xlink" xmlns:svgjs="http://svgjs.dev/svgjs" width="1000" height="232" viewBox="0 0 1000 232"><g transform="matrix(1,0,0,1,-0.6060606060606801,0.458424188920759)"><svg viewBox="0 0 396 92" data-background-color="#ffffff" preserveAspectRatio="xMidYMid meet" height="232" width="1000" xmlns="http://www.w3.org/2000/svg" xmlns:xlink="http://www.w3.org/1999/xlink"><g id="tight-bounds" transform="matrix(1,0,0,1,0.24000000000003752,-0.18178890250305813)"><svg viewBox="0 0 395.5199999999999 92.36357780500612" height="92.36357780500612" width="395.5199999999999"><g><svg viewBox="0 0 395.5199999999999 92.36357780500612" height="92.36357780500612" width="395.5199999999999"><g><svg viewBox="0 0 395.5199999999999 92.36357780500612" height="92.36357780500612" width="395.5199999999999"><g id="textblocktransform"><svg viewBox="0 0 395.5199999999999 92.36357780500612" height="92.36357780500612" width="395.5199999999999" id="textblock"><g><svg viewBox="0 0 395.5199999999999 92.36357780500612" height="92.36357780500612" width="395.5199999999999"><g transform="matrix(1,0,0,1,0,0)"><svg width="395.5199999999999" viewBox="1.51 -38.33 171.645156249984 40.089999999999996" height="92.36357780500612" data-palette-color="#d3d3d3"><path d="M24.12-26.17L24.12-26.17Q24.12-23.54 22.97-21 21.83-18.46 19.92-16.43 18.02-14.4 15.58-13.11 13.13-11.82 10.55-11.67L10.55-11.67Q10.5-10.79 10.47-9.45 10.45-8.11 10.3-6.64 10.16-5.18 9.89-3.71 9.62-2.25 9.11-1.07 8.59 0.1 7.79 0.83 6.98 1.56 5.81 1.56L5.81 1.56Q4.44 1.56 3.64 0.66 2.83-0.24 2.42-1.51 2-2.78 1.86-4.17 1.71-5.57 1.66-6.54L1.66-6.54Q1.56-7.96 1.54-9.33 1.51-10.69 1.51-12.11L1.51-12.11Q1.51-12.74 1.51-14.48 1.51-16.21 1.54-18.43 1.56-20.65 1.61-23.07 1.66-25.49 1.76-27.56 1.86-29.64 1.98-31.1 2.1-32.57 2.29-32.81L2.29-32.81Q2.34-32.86 2.59-33.03 2.83-33.2 3.13-33.37 3.42-33.54 3.66-33.69 3.91-33.84 4-33.89L4-33.89Q6.25-35.16 8.94-36.08 11.62-37.01 14.26-37.01L14.26-37.01Q16.5-37.01 18.33-36.11 20.17-35.21 21.46-33.72 22.75-32.23 23.44-30.25 24.12-28.27 24.12-26.17ZM15.67-25.05L15.67-25.05Q15.67-26.03 15.21-26.76 14.75-27.49 13.67-27.49L13.67-27.49Q12.74-27.49 11.82-27.12 10.89-26.76 10.11-26.37L10.11-26.37Q10.25-24.66 10.38-23.05 10.5-21.44 10.4-19.73L10.4-19.73Q11.18-20.12 12.11-20.63 13.04-21.14 13.82-21.78 14.6-22.41 15.14-23.22 15.67-24.02 15.67-25.05ZM34.57 1.42L34.57 1.42Q32.08 1.42 30.22 0.1 28.37-1.22 27.1-3.27 25.83-5.32 25.19-7.84 24.56-10.35 24.56-12.79L24.56-12.79Q24.56-15.38 25.19-18.14 25.83-20.9 27.15-23.17 28.46-25.44 30.52-26.88 32.57-28.32 35.4-28.32L35.4-28.32Q38.13-28.32 40.06-26.83 41.99-25.34 43.16-23.12 44.33-20.9 44.82-18.26 45.31-15.63 45.16-13.28L45.16-13.28Q45.02-10.69 44.36-8.06 43.7-5.42 42.43-3.32 41.16-1.22 39.21 0.1 37.25 1.42 34.57 1.42ZM35.06-20.65L35.06-20.65Q34.32-20.65 33.76-19.87 33.2-19.09 32.83-17.97 32.47-16.85 32.27-15.6 32.08-14.36 32.08-13.43L32.08-13.43Q32.08-12.26 32.3-10.89 32.52-9.52 32.91-8.37 33.3-7.23 33.86-6.47 34.42-5.71 35.15-5.71L35.15-5.71Q35.94-5.71 36.5-6.45 37.06-7.18 37.4-8.3 37.74-9.42 37.89-10.77 38.03-12.11 38.03-13.28L38.03-13.28Q38.03-14.36 37.84-15.65 37.64-16.94 37.28-18.07 36.91-19.19 36.35-19.92 35.79-20.65 35.06-20.65ZM64.59-18.26L64.59-18.26Q63.91-18.21 63.42-18.38 62.93-18.55 62.45-18.75L62.45-18.75Q62.01-18.95 61.57-19.12 61.13-19.29 60.59-19.24L60.59-19.24Q59.61-19.19 58.86-18.7 58.1-18.21 57.49-17.48 56.88-16.75 56.44-15.84 56-14.94 55.76-14.06L55.76-14.06Q55.61-13.48 55.54-12.28 55.46-11.08 55.46-9.72L55.46-9.72Q55.41-8.3 55.41-7.03 55.41-5.76 55.32-5.03L55.32-5.03Q55.27-4.25 55.07-3.2 54.88-2.15 54.46-1.22 54.05-0.29 53.36 0.34 52.68 0.98 51.61 0.98L51.61 0.98Q50.78 0.98 50.17 0.49 49.56 0 49.14-0.81 48.73-1.61 48.46-2.69 48.19-3.76 48.04-4.88L48.04-4.88Q47.9-6.05 47.82-7.23 47.75-8.4 47.72-9.45 47.7-10.5 47.72-11.38 47.75-12.26 47.75-12.79L47.75-12.79Q47.7-14.5 47.58-16.24 47.46-17.97 47.46-19.68L47.46-19.68Q47.46-20.75 47.55-22.07 47.65-23.39 48.09-24.54 48.53-25.68 49.38-26.46 50.24-27.25 51.75-27.25L51.75-27.25Q52.58-27.25 53.17-26.71 53.75-26.17 54.12-25.39 54.49-24.61 54.68-23.73 54.88-22.85 54.93-22.12L54.93-22.12Q56.1-24.02 57.56-25.22 59.03-26.42 61.37-26.51L61.37-26.51Q62.54-26.56 63.69-26.29 64.84-26.03 65.79-25.42 66.74-24.8 67.35-23.83 67.96-22.85 68.01-21.53L68.01-21.53Q68.11-19.97 67.08-19.14 66.06-18.31 64.59-18.26ZM80.12 1.76L80.12 1.76Q76.65 1.76 74.72 0.85 72.8-0.05 71.84-1.71 70.89-3.37 70.7-5.71 70.5-8.06 70.5-10.94L70.5-10.94Q70.5-13.23 70.65-15.55 70.79-17.87 71.09-20.51L71.09-20.51Q70.4-20.51 70.01-20.48 69.62-20.46 69.38-20.46L69.38-20.46Q67.81-20.46 66.67-21.14 65.52-21.83 65.52-23.24L65.52-23.24Q65.52-24.12 66.18-24.8 66.84-25.49 67.86-25.98 68.89-26.46 70.09-26.76 71.28-27.05 72.36-27.15L72.36-27.15Q72.36-28.52 72.55-30.18 72.75-31.84 73.26-33.28 73.77-34.72 74.65-35.69 75.53-36.67 76.9-36.67L76.9-36.67Q77.68-36.67 78.29-36.21 78.9-35.74 79.29-35.03 79.68-34.33 79.88-33.45 80.07-32.57 80.07-31.74L80.07-31.74Q80.07-30.76 79.92-29.74 79.78-28.71 79.39-27.2L79.39-27.2Q80.22-27.29 80.51-27.32 80.8-27.34 81.05-27.34L81.05-27.34Q81.88-27.34 82.78-27.2 83.68-27.05 84.44-26.71 85.2-26.37 85.69-25.81 86.17-25.24 86.17-24.46L86.17-24.46Q86.17-23.58 85.47-22.9 84.76-22.22 83.68-21.73 82.61-21.24 81.39-20.97 80.17-20.7 79.09-20.61L79.09-20.61Q78.8-18.6 78.68-16.92 78.56-15.23 78.41-13.53L78.41-13.53Q78.31-12.7 78.24-11.84 78.17-10.99 78.17-10.11L78.17-10.11Q78.17-9.47 78.22-8.62 78.26-7.76 78.56-6.98 78.85-6.2 79.48-5.64 80.12-5.08 81.24-5.08L81.24-5.08Q81.93-5.08 82.66-5.2 83.39-5.32 84.12-5.32L84.12-5.32Q85.39-5.32 85.95-4.44 86.52-3.56 86.52-2.2L86.52-2.2Q86.52-1.17 85.91-0.42 85.3 0.34 84.37 0.81 83.44 1.27 82.29 1.51 81.14 1.76 80.12 1.76ZM107.95-29.2L107.95-29.2Q107.95-28.27 107.78-27.42 107.61-26.56 107.17-25.93 106.73-25.29 106-24.93 105.26-24.56 104.19-24.56L104.19-24.56Q102.97-24.56 102.38-25.05 101.8-25.54 101.58-26.25 101.36-26.95 101.36-27.78 101.36-28.61 101.28-29.32 101.21-30.03 100.92-30.52 100.62-31.01 99.84-31.01L99.84-31.01Q99.11-31.01 98.65-29.88 98.18-28.76 97.89-27.29 97.6-25.83 97.5-24.44 97.4-23.05 97.4-22.56L97.4-22.56Q98.04-22.66 98.62-22.73 99.21-22.8 99.89-22.8L99.89-22.8Q100.58-22.8 101.31-22.66 102.04-22.51 102.68-22.19 103.31-21.88 103.7-21.31 104.09-20.75 104.09-19.92L104.09-19.92Q104.09-19.04 103.33-18.36 102.58-17.68 101.53-17.21 100.48-16.75 99.4-16.46 98.33-16.16 97.7-16.06L97.7-16.06Q97.84-12.7 97.84-9.28L97.84-9.28Q97.84-6.05 97.7-2.93L97.7-2.93Q97.6-1.42 96.65-0.44 95.69 0.54 94.18 0.54L94.18 0.54Q93.35 0.54 92.76 0.22 92.18-0.1 91.79-0.63 91.4-1.17 91.18-1.86 90.96-2.54 90.91-3.27L90.91-3.27Q90.66-6.2 90.52-9.16 90.37-12.11 90.42-15.09L90.42-15.09Q90.08-15.04 89.76-15.04 89.44-15.04 89.1-15.04L89.1-15.04Q88.52-15.04 87.69-15.19 86.86-15.33 86.1-15.7 85.34-16.06 84.8-16.6 84.27-17.14 84.27-17.97L84.27-17.97Q84.27-19.04 84.98-19.78 85.68-20.51 86.68-20.97 87.69-21.44 88.78-21.63 89.88-21.83 90.71-21.92L90.71-21.92 90.71-22.71Q90.71-25.1 91.15-27.83 91.59-30.57 92.71-32.91 93.84-35.25 95.79-36.79 97.74-38.33 100.77-38.33L100.77-38.33Q102.68-38.33 104.04-37.52 105.41-36.72 106.29-35.42 107.17-34.13 107.56-32.5 107.95-30.86 107.95-29.2ZM115.42 1.42L115.42 1.42Q112.93 1.42 111.07 0.1 109.22-1.22 107.95-3.27 106.68-5.32 106.04-7.84 105.41-10.35 105.41-12.79L105.41-12.79Q105.41-15.38 106.04-18.14 106.68-20.9 108-23.17 109.31-25.44 111.36-26.88 113.42-28.32 116.25-28.32L116.25-28.32Q118.98-28.32 120.91-26.83 122.84-25.34 124.01-23.12 125.18-20.9 125.67-18.26 126.16-15.63 126.01-13.28L126.01-13.28Q125.87-10.69 125.21-8.06 124.55-5.42 123.28-3.32 122.01-1.22 120.06 0.1 118.1 1.42 115.42 1.42ZM115.91-20.65L115.91-20.65Q115.17-20.65 114.61-19.87 114.05-19.09 113.68-17.97 113.32-16.85 113.12-15.6 112.93-14.36 112.93-13.43L112.93-13.43Q112.93-12.26 113.15-10.89 113.37-9.52 113.76-8.37 114.15-7.23 114.71-6.47 115.27-5.71 116-5.71L116-5.71Q116.78-5.71 117.35-6.45 117.91-7.18 118.25-8.3 118.59-9.42 118.74-10.77 118.88-12.11 118.88-13.28L118.88-13.28Q118.88-14.36 118.69-15.65 118.49-16.94 118.13-18.07 117.76-19.19 117.2-19.92 116.64-20.65 115.91-20.65ZM137.63-29.59L137.63-29.59Q137.63-26.95 137.41-24.29 137.19-21.63 137.19-18.95L137.19-18.95Q137.19-15.48 137.41-12.01 137.63-8.54 137.63-5.03L137.63-5.03Q137.63-4.15 137.53-3.05 137.44-1.95 137.07-1.03 136.7-0.1 135.97 0.54 135.24 1.17 134.02 1.17L134.02 1.17Q132.85 1.17 131.99 0.02 131.14-1.12 130.58-2.91 130.01-4.69 129.65-6.88 129.28-9.08 129.11-11.16 128.94-13.23 128.87-14.97 128.79-16.7 128.79-17.53L128.79-17.53Q128.79-18.46 128.87-20.21 128.94-21.97 129.18-24.02 129.43-26.07 129.84-28.2 130.26-30.32 130.94-32.06 131.63-33.79 132.58-34.89 133.53-35.99 134.85-35.99L134.85-35.99Q135.92-35.99 136.48-35.28 137.05-34.57 137.29-33.57 137.53-32.57 137.58-31.47 137.63-30.37 137.63-29.59ZM149.4-34.08L149.4-34.08Q149.4-33.4 149.03-32.86 148.66-32.32 148.08-31.91 147.49-31.49 146.81-31.27 146.13-31.05 145.54-31.05L145.54-31.05Q144.56-31.05 143.83-31.54 143.1-32.03 143.1-33.06L143.1-33.06Q143.1-33.79 143.46-34.35 143.83-34.91 144.37-35.28 144.9-35.64 145.59-35.84 146.27-36.04 146.91-36.04L146.91-36.04Q147.83-36.04 148.62-35.6 149.4-35.16 149.4-34.08ZM149.79-17.48L149.79-17.48Q149.79-16.8 149.79-16.04 149.79-15.28 149.74-14.6L149.74-14.6Q149.69-13.77 149.69-12.38 149.69-10.99 149.59-9.38 149.49-7.76 149.27-6.1 149.05-4.44 148.57-3.08 148.08-1.71 147.27-0.85 146.47 0 145.25 0.05L145.25 0.05Q144.32 0.1 143.68-0.68 143.05-1.46 142.63-2.71 142.22-3.96 142.02-5.49 141.83-7.03 141.73-8.47 141.63-9.91 141.63-11.13 141.63-12.35 141.63-12.94L141.63-12.94Q141.63-13.72 141.63-15.16 141.63-16.6 141.73-18.26 141.83-19.92 142.1-21.63 142.37-23.34 142.88-24.76 143.39-26.17 144.22-27.05 145.05-27.93 146.32-27.93L146.32-27.93Q147.64-27.93 148.32-26.61 149.01-25.29 149.35-23.54 149.69-21.78 149.74-20.04 149.79-18.31 149.79-17.48ZM162.53 1.42L162.53 1.42Q160.04 1.42 158.18 0.1 156.33-1.22 155.06-3.27 153.79-5.32 153.15-7.84 152.52-10.35 152.52-12.79L152.52-12.79Q152.52-15.38 153.15-18.14 153.79-20.9 155.11-23.17 156.43-25.44 158.48-26.88 160.53-28.32 163.36-28.32L163.36-28.32Q166.09-28.32 168.02-26.83 169.95-25.34 171.12-23.12 172.29-20.9 172.78-18.26 173.27-15.63 173.12-13.28L173.12-13.28Q172.98-10.69 172.32-8.06 171.66-5.42 170.39-3.32 169.12-1.22 167.17 0.1 165.21 1.42 162.53 1.42ZM163.02-20.65L163.02-20.65Q162.28-20.65 161.72-19.87 161.16-19.09 160.8-17.97 160.43-16.85 160.23-15.6 160.04-14.36 160.04-13.43L160.04-13.43Q160.04-12.26 160.26-10.89 160.48-9.52 160.87-8.37 161.26-7.23 161.82-6.47 162.38-5.71 163.11-5.71L163.11-5.71Q163.9-5.71 164.46-6.45 165.02-7.18 165.36-8.3 165.7-9.42 165.85-10.77 166-12.11 166-13.28L166-13.28Q166-14.36 165.8-15.65 165.61-16.94 165.24-18.07 164.87-19.19 164.31-19.92 163.75-20.65 163.02-20.65Z" opacity="1" transform="matrix(1,0,0,1,0,0)" fill="#ffffff" class="wordmark-text-0" data-fill-palette-color="primary" id="text-0"></path></svg></g></svg></g></svg></g></svg></g><g></g></svg></g><defs></defs></svg><rect width="395.5199999999999" height="92.36357780500612" fill="none" stroke="none" visibility="hidden"></rect></g></svg></g></svg>